<svg width="33" height="24" viewBox="0 0 33 24" fill="none" xmlns="http://www.w3.org/2000/svg">
<path d="M16.5 0C18.9551 0 21.4139 0.941036 23.2871 2.83065C24.8768 4.43439 25.7925 6.46186 26.0331 8.55242C29.9422 8.91045 33 12.2213 33 16.2581C33 20.5338 29.564 24 25.3256 24H6.52326C2.90937 24 0 21.065 0 17.4194C0 13.7737 2.90937 10.8387 6.52326 10.8387H6.97892C6.64079 7.99184 7.55926 5.01535 9.72495 2.83065C11.598 0.941036 14.0449 0 16.5 0ZM16.5 8.12903C16.2963 8.12826 16.1533 8.16685 15.9844 8.32258L11.7634 12.1935C11.4632 12.4654 11.408 12.9958 11.7035 13.2943C11.9885 13.5824 12.4968 13.6171 12.7947 13.3427L15.7326 10.6452V18.9677C15.7326 19.3953 16.0761 19.7419 16.5 19.7419C16.9239 19.7419 17.2674 19.3953 17.2674 18.9677V10.6452L20.2053 13.3427C20.5032 13.6171 21.0257 13.596 21.2965 13.2943C21.5673 12.9926 21.552 12.4705 21.2366 12.1935L17.0156 8.32258C16.906 8.22124 16.7053 8.1329 16.5 8.12903Z" fill="#762362"/>
</svg>
