<svg width="10" height="7" viewBox="0 0 10 7" fill="none" xmlns="http://www.w3.org/2000/svg">
<path d="M6.89266 3.0282L6.01868 2.10119C5.89174 1.96482 5.8239 1.78376 5.82997 1.59754C5.83604 1.41133 5.91553 1.23507 6.05108 1.10725C6.18663 0.979427 6.36725 0.910416 6.5535 0.91528C6.73975 0.920144 6.91652 0.998487 7.04521 1.13321L9.04042 3.24967C9.06557 3.28234 9.08767 3.31725 9.10643 3.35396C9.13448 3.38981 9.15889 3.42837 9.17929 3.46906C9.24818 3.63874 9.24818 3.82859 9.17929 3.99826C9.15889 4.03895 9.13448 4.07751 9.10643 4.11336C9.08767 4.15007 9.06557 4.18498 9.04042 4.21765L7.04521 6.33411C6.91635 6.46811 6.73981 6.54583 6.55396 6.55037C6.36811 6.55492 6.18798 6.48593 6.05272 6.35839C5.91746 6.23085 5.83801 6.05508 5.83164 5.86929C5.82526 5.68349 5.89248 5.50269 6.01868 5.36619L6.89266 4.43918L1.47229 4.43918C1.28518 4.43918 1.10574 4.36485 0.973433 4.23254C0.841128 4.10024 0.7668 3.9208 0.7668 3.73369C0.7668 3.54658 0.841128 3.36714 0.973433 3.23484C1.10574 3.10253 1.28518 3.0282 1.47229 3.0282L6.89266 3.0282Z" fill="#1C2B58"/>
</svg>
