<svg width="12" height="13" viewBox="0 0 12 13" fill="none" xmlns="http://www.w3.org/2000/svg">
<path d="M11.6437 8.97306V10.384C11.6431 10.9452 11.4199 11.4831 11.0232 11.8799C10.6264 12.2767 10.0884 12.4999 9.52728 12.5005H2.47242C1.91128 12.4999 1.37331 12.2767 0.97653 11.8799C0.57975 11.4831 0.35657 10.9452 0.355957 10.384V8.97306C0.355957 8.78596 0.430285 8.60651 0.562589 8.47421C0.694894 8.34191 0.874337 8.26758 1.06144 8.26758C1.24855 8.26758 1.42799 8.34191 1.5603 8.47421C1.6926 8.60651 1.76693 8.78596 1.76693 8.97306V10.384C1.76712 10.5711 1.8415 10.7504 1.97377 10.8827C2.10603 11.0149 2.28537 11.0893 2.47242 11.0895H9.52728C9.71433 11.0893 9.89367 11.0149 10.0259 10.8827C10.1582 10.7504 10.2326 10.5711 10.2328 10.384V8.97306C10.2328 8.78596 10.3071 8.60651 10.4394 8.47421C10.5717 8.34191 10.7511 8.26758 10.9383 8.26758C11.1254 8.26758 11.3048 8.34191 11.4371 8.47421C11.5694 8.60651 11.6437 8.78596 11.6437 8.97306Z" fill="#1C2B58"/>
<path d="M6.70373 6.62655L7.63074 5.75257C7.76712 5.62563 7.94818 5.55779 8.13439 5.56386C8.32061 5.56993 8.49686 5.64941 8.62468 5.78497C8.75251 5.92052 8.82152 6.10113 8.81665 6.28739C8.81179 6.47364 8.73345 6.6504 8.59872 6.7791L6.48226 8.77431C6.44959 8.79946 6.41468 8.82155 6.37797 8.84032C6.34212 8.86837 6.30356 8.89278 6.26287 8.91318C6.0932 8.98207 5.90335 8.98207 5.73367 8.91318C5.69298 8.89278 5.65442 8.86837 5.61857 8.84032C5.58186 8.82155 5.54695 8.79946 5.51428 8.77431L3.39782 6.7791C3.26382 6.65024 3.18611 6.4737 3.18156 6.28785C3.17701 6.102 3.24601 5.92187 3.37354 5.78661C3.50108 5.65135 3.67685 5.5719 3.86264 5.56553C4.04844 5.55915 4.22924 5.62637 4.36575 5.75257L5.29276 6.62655L5.29276 1.20617C5.29276 1.01907 5.36709 0.839623 5.49939 0.707319C5.63169 0.575015 5.81114 0.500686 5.99824 0.500686C6.18535 0.500686 6.36479 0.575015 6.4971 0.707319C6.6294 0.839623 6.70373 1.01907 6.70373 1.20617L6.70373 6.62655Z" fill="#1C2B58"/>
</svg>
