<svg width="94" height="86" viewBox="0 0 94 86" fill="#e20000" xmlns="http://www.w3.org/2000/svg">
<path d="M92.547 72.5781L54.359 5.07807C52.8434 2.39057 50.0934 0.796875 46.9996 0.796875C43.9058 0.796875 41.1558 2.39067 39.6402 5.07807L1.45216 72.5781C-0.0478436 75.2343 -0.0322436 78.375 1.49903 81.0156C3.03023 83.6406 5.76463 85.2031 8.81153 85.2031H85.1865C88.2334 85.2031 90.9677 83.6406 92.499 81.0156C94.0302 78.375 94.0459 75.2344 92.5459 72.5781H92.547ZM42.313 66.6719C42.313 64.0938 44.4224 61.9844 47.0005 61.9844C49.5786 61.9844 51.688 64.0938 51.688 66.6719C51.688 69.25 49.5786 71.3594 47.0005 71.3594C44.4224 71.3594 42.313 69.25 42.313 66.6719ZM51.8442 52.7029C51.7192 55.281 49.5786 57.2967 47.0004 57.2967C44.4222 57.2967 42.2816 55.2811 42.1566 52.7029L41.0004 30.8119C40.9066 29.14 41.5004 27.5619 42.641 26.3588C43.7816 25.1557 45.3285 24.4838 47.0004 24.4838C48.6723 24.4838 50.2192 25.1557 51.3598 26.3588C52.5004 27.5619 53.0942 29.14 53.0004 30.8119L51.8442 52.7029Z" fill="#e20000"/>
</svg>
