<svg xmlns="http://www.w3.org/2000/svg" xml:space="preserve" id="Layer_1" x="0" y="0" style="enable-background:new 0 0 512 512" version="1.1" viewBox="0 0 512 512"><style>.st1{fill:#1c2b58}</style><path d="M2.9 35.6 19.4 19h112.1v33.1H36V460h95.6v33.1H19.4L2.9 476.5V35.6zM510 476.5 493.5 493H381.3v-33h95.6V52.1h-95.6V19h112.1L510 35.6v440.9z" style="fill-rule:evenodd;clip-rule:evenodd;fill:#1c2b58"/><path d="M256.4 101.7c-86.8 0-157.1 70.3-157.1 157.1s70.3 157.1 157.1 157.1 157.1-70.3 157.1-157.1-70.3-157.1-157.1-157.1zm0 32.5c68.7 0 124.6 55.9 124.6 124.6s-55.9 124.6-124.6 124.6-124.6-55.9-124.6-124.6 56-124.6 124.6-124.6z" class="st1"/><path d="M118.7 288.5s-3.6-29.9 4.6-59.8c8.4-29.8 44.9-71 54.1-76.5 9.4-5.5 65.4-21.5 65.4-21.5s7.5 33.6-10.3 54.1c-17.7 20.6-41 65.4-8.5 74.6 32.5 9.3 79.4 20.5 86.8 45.6 16.1 54.2-25.2 87.1-25.2 87.1s-35.3 7.7-33.2 2.1c9.7-25.7-26.6-46.6-31.3-67.6-5.6-24.7 30.8-42-10.3-47.5s-36.4 36.4-84.9 26.1M272.3 126.5s-11.8 33.5 3.9 67 36.5 1 53.2 17.7c16.6 16.8 15.8 25.7 33.5 23.6l17.7-2-3-16.8-32.5-53-72.9-36.6.1.1zM383.9 281.8c-1.5-9-21.5-28.1-32.5-17-8.9 8.9 8.2 25.4 2.2 36.2-6 10.8-11.8 14.1-11.8 28.8s6 21.5 6 21.5l27.7-42.3s9.8-20.2 8.7-27.1h-.3z" class="st1"/></svg>