<svg class="logo" xmlns="http://www.w3.org/2000/svg" width="166" height="47" viewBox="0 0 166 47" fill="#FFFFFF"><path d="M3 3h8.671V0H1.5L0 1.5v40L1.5 43h10.171v-3H3zM34.329 0v3H43v37h-8.671v3H44.5l1.5-1.5v-40L44.5 0z"></path><path d="M23 7.5c-7.872 0-14.25 6.378-14.25 14.25S15.128 36 23 36s14.25-6.378 14.25-14.25S30.872 7.5 23 7.5zM12.579 26.12c2.948-.078 3.023-2.953 6.293-2.513 3.725.501.423 2.074.934 4.314.368 1.622 2.798 3.238 2.972 5.119-4.586-.09-8.513-2.918-10.199-6.92zm19.028-3.819c-.806.806.737 2.3.197 3.282-.541.983-1.071 1.278-1.071 2.614 0 .694.145 1.188.286 1.506a11.328 11.328 0 0 1-3.999 2.596c.896-1.351 1.76-3.523.924-6.334-.668-2.28-4.914-3.292-7.872-4.137s-.845-4.904.767-6.771c1.275-1.478 1.117-3.688.995-4.549a11.16 11.16 0 0 1 2.413.013c-.223 1.094-.436 3.2.553 5.313 1.425 3.047 3.312.089 4.825 1.612s1.435 2.329 3.037 2.142l1.4-.154c.156.748.241 1.522.241 2.316 0 .477-.039.944-.097 1.405-.604-.796-1.834-1.618-2.598-.854zM58.141 11.75h2.225V1.966h3.641V0H54.5v1.966h3.641zM67.756 7.249c0-.314.068-.591.204-.829.135-.238.322-.422.561-.553.238-.13.509-.195.812-.195.466 0 .845.146 1.138.439.293.292.439.672.439 1.138v4.502h2.13V6.778c0-.596-.13-1.121-.39-1.576s-.621-.812-1.081-1.073c-.461-.26-.989-.39-1.585-.39s-1.124.13-1.584.39a2.861 2.861 0 0 0-.643.501V0h-2.129v11.75h2.129V7.248zM76.402 11.385c.639.352 1.371.528 2.194.528.639 0 1.232-.114 1.779-.341a3.646 3.646 0 0 0 1.389-1.007l-1.251-1.251c-.239.271-.52.474-.845.609a2.795 2.795 0 0 1-1.089.203c-.444 0-.834-.095-1.17-.285a1.89 1.89 0 0 1-.929-1.262l5.723-.014a4.035 4.035 0 0 0 .114-.926c0-.748-.166-1.417-.496-2.007s-.785-1.056-1.365-1.398-1.249-.512-2.007-.512a4.113 4.113 0 0 0-3.583 2.007c-.364.612-.545 1.309-.545 2.089 0 .791.187 1.495.561 2.113.373.617.88 1.102 1.519 1.455zm.943-5.607a2.104 2.104 0 0 1 1.105-.285c.401 0 .74.084 1.016.252s.487.409.634.724c.07.151.124.321.165.506l-3.782.011c.039-.143.077-.286.139-.412.169-.341.409-.607.724-.796zM61.589 25.17c-.461.195-1.01.293-1.65.293-.53 0-1.016-.092-1.455-.276a3.37 3.37 0 0 1-1.145-.788 3.506 3.506 0 0 1-.747-1.211 4.432 4.432 0 0 1-.26-1.56c0-.563.086-1.081.26-1.552a3.51 3.51 0 0 1 .747-1.219 3.263 3.263 0 0 1 1.145-.78 3.82 3.82 0 0 1 1.455-.268c.607 0 1.138.098 1.593.293s.84.466 1.154.812l1.496-1.495a5.971 5.971 0 0 0-1.836-1.227c-.694-.297-1.496-.447-2.406-.447-.844 0-1.622.152-2.331.455a5.993 5.993 0 0 0-1.87 1.251c-.536.531-.948 1.154-1.235 1.869s-.43 1.484-.43 2.308.143 1.593.43 2.308.699 1.34 1.235 1.877c.537.536 1.162.953 1.877 1.251s1.49.447 2.324.447c.932 0 1.75-.147 2.454-.439s1.321-.704 1.853-1.236l-1.495-1.495a3.169 3.169 0 0 1-1.162.828zM67.756 22.847c0-.314.068-.59.204-.828.135-.239.322-.423.561-.553.238-.13.509-.194.812-.194.466 0 .845.146 1.138.438.293.293.439.672.439 1.138v4.502h2.13v-4.973c0-.596-.13-1.121-.39-1.576s-.621-.813-1.081-1.073c-.461-.26-.989-.39-1.585-.39s-1.124.13-1.584.39a2.833 2.833 0 0 0-.643.501V15.6h-2.129v11.75h2.129v-4.502zM82.513 27.349v-7.85h-2.114v.779a2.763 2.763 0 0 0-.763-.6c-.445-.228-.948-.341-1.511-.341-.716 0-1.36.179-1.935.536a3.742 3.742 0 0 0-1.349 1.463c-.325.617-.487 1.316-.487 2.096 0 .769.163 1.462.487 2.08a3.739 3.739 0 0 0 1.349 1.462 3.581 3.581 0 0 0 1.935.537c.563 0 1.066-.117 1.511-.349.301-.158.545-.368.763-.603v.789h2.114zm-2.551-2.398c-.368.396-.851.593-1.447.593-.389 0-.734-.089-1.032-.268a1.853 1.853 0 0 1-.699-.747c-.168-.319-.251-.69-.251-1.113 0-.412.084-.778.251-1.098.168-.319.401-.568.699-.747a1.977 1.977 0 0 1 1.032-.268c.401 0 .75.089 1.048.268s.531.428.699.747c.168.32.252.685.252 1.098 0 .628-.185 1.141-.552 1.536zM86.446 22.847c0-.314.068-.59.204-.828.135-.239.322-.423.561-.553.238-.13.509-.194.812-.194.466 0 .845.146 1.138.438s.439.672.439 1.138v4.502h2.13v-4.973c0-.53-.13-1.026-.39-1.487-.26-.46-.618-.834-1.073-1.121s-.969-.431-1.544-.431c-.596 0-1.129.13-1.6.39a2.892 2.892 0 0 0-.675.524V19.5h-2.129v7.85h2.129v-4.502zM95.071 26.975c.639.358 1.359.537 2.161.537.618 0 1.187-.114 1.707-.342.52-.227.981-.558 1.381-.991l-1.381-1.381c-.207.238-.453.42-.74.545s-.609.187-.967.187c-.389 0-.739-.09-1.048-.268a1.937 1.937 0 0 1-.731-.747 2.204 2.204 0 0 1-.268-1.097c0-.423.089-.788.268-1.098.179-.308.423-.552.731-.731a2.054 2.054 0 0 1 1.048-.268c.346 0 .664.061.951.179.287.12.533.293.74.521l1.365-1.382c-.38-.422-.829-.747-1.349-.975s-1.089-.341-1.707-.341c-.791 0-1.509.181-2.154.544a4.043 4.043 0 0 0-1.519 1.471c-.368.617-.552 1.316-.552 2.096 0 .769.184 1.462.552 2.08s.872 1.105 1.512 1.462zM107.04 19.832c-.58-.341-1.249-.512-2.007-.512a4.113 4.113 0 0 0-3.583 2.007c-.364.612-.545 1.308-.545 2.089 0 .791.187 1.495.561 2.113a4 4 0 0 0 1.519 1.455c.639.352 1.371.528 2.194.528.639 0 1.232-.114 1.779-.342a3.628 3.628 0 0 0 1.389-1.007l-1.251-1.252c-.239.271-.52.474-.845.609a2.796 2.796 0 0 1-1.089.204c-.444 0-.834-.095-1.17-.285s-.593-.46-.772-.812a2.39 2.39 0 0 1-.157-.45l5.723-.014a3.946 3.946 0 0 0 .115-.926c0-.747-.166-1.417-.496-2.007s-.785-1.056-1.365-1.398zm-3.112 1.544a2.103 2.103 0 0 1 1.105-.284c.401 0 .74.084 1.016.252.276.169.487.409.634.724.07.151.124.321.165.506l-3.783.011c.039-.143.077-.286.139-.412.169-.342.409-.606.724-.797zM114.378 19.336c-.877 0-1.549.279-2.014.837l-.017.025v-.699h-2.129v7.85h2.129V23.01c0-.586.144-1.022.431-1.308.287-.287.658-.43 1.113-.43.217 0 .409.032.577.097.169.065.311.163.431.292l1.332-1.527a2.252 2.252 0 0 0-.828-.61 2.688 2.688 0 0 0-1.024-.187zM120.571 24.482l-1.795-4.983h-2.308l2.976 7.174-1.871 3.958h2.259l1.431-3.218 3.494-7.914h-2.324zM131.598 15.923h-2.211v11.426H136.831v-1.967h-5.233zM143.614 20.278a2.753 2.753 0 0 0-.764-.6c-.445-.228-.948-.341-1.511-.341-.716 0-1.36.179-1.935.536a3.742 3.742 0 0 0-1.349 1.463c-.325.617-.487 1.316-.487 2.096 0 .769.163 1.462.487 2.08a3.739 3.739 0 0 0 1.349 1.462 3.581 3.581 0 0 0 1.935.537c.563 0 1.066-.117 1.511-.349.301-.158.545-.368.764-.603v.789h2.113v-7.85h-2.113v.779zm-.438 4.673c-.368.396-.851.593-1.447.593-.389 0-.734-.089-1.032-.268a1.853 1.853 0 0 1-.699-.747c-.168-.319-.251-.69-.251-1.113 0-.412.084-.778.251-1.098.168-.319.401-.568.699-.747a1.977 1.977 0 0 1 1.032-.268c.401 0 .75.089 1.048.268s.531.428.699.747c.169.32.252.685.252 1.098 0 .628-.185 1.141-.552 1.536zM153.417 19.767a2.832 2.832 0 0 0-1.544-.431c-.596 0-1.129.13-1.6.39a2.892 2.892 0 0 0-.675.524v-.752h-2.129v7.85h2.129v-4.502c0-.314.068-.59.204-.828.135-.239.322-.423.561-.553.238-.13.509-.194.812-.194.466 0 .845.146 1.138.438.293.293.439.672.439 1.138v4.502h2.13v-4.973c0-.53-.13-1.026-.39-1.487a3.13 3.13 0 0 0-1.073-1.121zM163.495 21.23a3.68 3.68 0 0 0-1.365-1.398c-.58-.341-1.249-.512-2.007-.512a4.113 4.113 0 0 0-3.583 2.007c-.364.612-.545 1.308-.545 2.089 0 .791.187 1.495.561 2.113a4 4 0 0 0 1.519 1.455c.639.352 1.371.528 2.194.528.639 0 1.232-.114 1.779-.342a3.628 3.628 0 0 0 1.389-1.007l-1.251-1.252c-.239.271-.52.474-.845.609a2.796 2.796 0 0 1-1.089.204c-.444 0-.834-.095-1.17-.285s-.593-.46-.772-.812a2.39 2.39 0 0 1-.157-.45l5.723-.014a3.946 3.946 0 0 0 .115-.926c0-.747-.166-1.417-.496-2.007zm-4.478.146a2.103 2.103 0 0 1 1.105-.284c.401 0 .74.084 1.016.252.276.169.487.409.634.724.07.151.124.321.165.506l-3.783.011c.039-.143.077-.286.139-.412.169-.342.409-.606.724-.797zM62.13 31.96c-.58-.292-1.233-.439-1.958-.439H55.67v11.425h2.211v-4.242h2.292c.725 0 1.378-.146 1.958-.438a3.383 3.383 0 0 0 1.373-1.243c.336-.537.505-1.173.505-1.91s-.169-1.374-.505-1.91a3.369 3.369 0 0 0-1.373-1.243zm-.577 4.12a1.614 1.614 0 0 1-.666.61 2.078 2.078 0 0 1-.943.211H57.88v-3.576h2.064c.346 0 .661.07.943.211s.504.347.666.618c.163.27.244.59.244.959 0 .379-.081.702-.244.966zM69.787 34.934c-.877 0-1.549.279-2.014.837l-.017.025v-.699h-2.129v7.849h2.129v-4.339c0-.586.144-1.022.431-1.308.287-.288.658-.431 1.113-.431.217 0 .409.033.577.098.169.065.311.163.431.292l1.332-1.528a2.25 2.25 0 0 0-.828-.609 2.688 2.688 0 0 0-1.024-.187zM79.588 41.085c.368-.623.553-1.319.553-2.088s-.185-1.46-.553-2.073a4.087 4.087 0 0 0-1.503-1.462c-.634-.363-1.352-.545-2.153-.545-.78 0-1.49.182-2.129.545-.64.363-1.143.85-1.512 1.462-.368.612-.552 1.303-.552 2.073s.187 1.465.561 2.088a4.107 4.107 0 0 0 1.511 1.479c.634.363 1.346.545 2.137.545s1.503-.182 2.137-.545 1.135-.856 1.503-1.479zm-1.877-.974c-.169.32-.407.569-.716.747a2.082 2.082 0 0 1-1.064.268c-.389 0-.737-.09-1.04-.268a1.878 1.878 0 0 1-.715-.747c-.174-.319-.261-.685-.261-1.097s.087-.775.261-1.089c.172-.314.411-.561.715-.74.303-.179.65-.268 1.04-.268.401 0 .753.089 1.057.268.303.179.542.426.715.74s.26.677.26 1.089-.084.778-.251 1.097zM82.855 31.391c-.347 0-.634.12-.862.358s-.342.526-.342.862c0 .347.114.636.342.869s.514.349.862.349c.357 0 .647-.116.869-.349s.333-.523.333-.869c0-.336-.111-.624-.333-.862s-.512-.358-.869-.358zM81.766 43.515c0 .314-.092.553-.276.716a1 1 0 0 1-.683.244 1.16 1.16 0 0 1-.512-.106 1.215 1.215 0 0 1-.414-.349l-1.349 1.349c.304.335.642.595 1.016.78.373.184.843.276 1.405.276.553 0 1.048-.116 1.487-.349s.791-.568 1.057-1.007.398-.967.398-1.585v-8.385h-2.129v8.418zM91.459 35.43c-.58-.342-1.249-.512-2.007-.512a4.113 4.113 0 0 0-3.583 2.007c-.364.612-.545 1.308-.545 2.089 0 .791.187 1.495.561 2.113a4 4 0 0 0 1.519 1.455c.639.352 1.371.528 2.194.528.639 0 1.232-.114 1.779-.342a3.646 3.646 0 0 0 1.389-1.007l-1.251-1.252c-.239.271-.52.474-.845.609a2.796 2.796 0 0 1-1.089.204c-.444 0-.834-.095-1.17-.285s-.593-.46-.772-.812a2.39 2.39 0 0 1-.157-.45l5.723-.014a4.015 4.015 0 0 0 .114-.926c0-.747-.166-1.417-.496-2.007s-.785-1.057-1.365-1.398zm-3.112 1.544a2.103 2.103 0 0 1 1.105-.284c.401 0 .74.084 1.016.251.276.169.487.409.634.724.07.151.124.321.165.506l-3.783.011c.039-.143.077-.286.139-.412.169-.342.409-.606.724-.797zM99.391 40.94a2.397 2.397 0 0 1-.967.187c-.389 0-.739-.09-1.048-.268a1.937 1.937 0 0 1-.731-.747 2.204 2.204 0 0 1-.268-1.097c0-.423.089-.788.268-1.098.179-.308.423-.552.731-.731a2.054 2.054 0 0 1 1.048-.268c.346 0 .664.059.951.178.287.12.533.293.74.521l1.365-1.381c-.38-.423-.829-.748-1.349-.976s-1.089-.341-1.707-.341c-.791 0-1.509.182-2.154.545s-1.151.853-1.519 1.471c-.368.617-.552 1.316-.552 2.096 0 .769.184 1.462.552 2.08s.872 1.105 1.512 1.462c.639.358 1.359.537 2.161.537.618 0 1.187-.114 1.707-.342s.981-.558 1.381-.991l-1.381-1.381a2.06 2.06 0 0 1-.74.545zM105.948 31.83h-2.13v3.267h-1.836v1.869h1.836v5.981h2.13v-5.981h1.837v-1.869h-1.837z"></path></svg>
